<svg width="290" height="230" viewBox="0 0 290 230" fill="none" xmlns="http://www.w3.org/2000/svg">
<g filter="url(#filter0_dd_1_212)">
<mask id="mask0_1_212" style="mask-type:alpha" maskUnits="userSpaceOnUse" x="17" y="-17" width="256" height="186">
<path d="M132.267 112.076L164.702 104.351L156.977 71.9162L124.543 79.6409L132.267 112.076Z" fill="#F9E050"/>
<path d="M65.4018 43.2515L97.8366 35.5268L92.1872 11.8058L59.7524 19.5305L65.4018 43.2515Z" fill="#F4F464"/>
<path d="M94.972 61.446L127.407 53.7213L119.682 21.2865L87.2473 29.0112L94.972 61.446ZM23.3411 78.5056L47.2234 72.8178L41.5356 48.9354L17.6533 54.6233L23.3411 78.5056ZM76.7698 90.9838L100.652 85.296L94.9643 61.4137L71.082 67.1015L76.7698 90.9838Z" fill="#F4F464"/>
<path d="M137.94 135.894L170.374 128.169L162.65 95.7341L130.215 103.459L137.94 135.894Z" fill="#F9B038"/>
<path d="M133.061 153.288L174.016 143.535L168.328 119.652L127.373 129.406L133.061 153.288Z" fill="#F6842D"/>
<path d="M69.9674 168.315L93.8497 162.627L88.1619 138.745L64.2796 144.433L69.9674 168.315Z" fill="#F9E050"/>
<path d="M115.204 40.4282L147.638 32.7035L139.952 0.430108L107.517 8.15479L115.204 40.4282Z" fill="#F6842D"/>
<path d="M88.1415 138.733L112.024 133.045L106.336 109.163L82.4537 114.85L88.1415 138.733Z" fill="#F4F464"/>
<path d="M144.628 58.6577L177.063 50.933L169.338 18.4982L136.903 26.2229L144.628 58.6577Z" fill="#F4AC2B"/>
<path d="M150.304 82.4909L182.739 74.7663L175.014 42.3315L142.58 50.0562L150.304 82.4909Z" fill="#F6842D"/>
<path d="M156.004 106.422L188.439 98.6974L180.714 66.2626L148.279 73.9873L156.004 106.422Z" fill="#F4AC2B"/>
<path d="M161.676 130.24L194.111 122.516L186.386 90.081L153.952 97.8057L161.676 130.24Z" fill="#F6842D"/>
<path d="M131.415 2.46355L137.065 26.1845L160.786 20.5351L183.529 116.032L159.647 121.72L165.335 145.602L229.349 130.357C238.967 128.066 247.032 124.986 253.509 121.107C259.993 117.261 264.823 112.052 268.035 105.49C271.246 98.927 272.867 90.6971 272.833 80.8151C272.806 70.9654 271.063 58.8474 267.627 44.4212C264.16 29.8659 260.331 18.296 256.129 9.74747C251.873 1.04146 246.943 -5.33848 241.343 -9.37621C235.738 -13.6095 228.928 -15.9423 221.904 -16.035C214.585 -16.338 206.044 -15.327 196.313 -13.0096L155.116 -3.19814L131.415 2.46355ZM184.697 10.458L200.14 6.78018C205.465 5.51195 210.226 5.02601 214.359 5.33774C218.64 5.51146 222.679 7.36839 225.599 10.5047C228.968 13.6243 231.984 18.4137 234.684 24.8814C237.529 31.3145 240.268 40.0921 242.919 51.2264C245.563 62.3285 247.058 71.4703 247.465 78.6205C247.987 85.607 247.469 91.3064 245.914 95.735C244.478 99.8247 241.703 103.31 238.038 105.625C234.462 107.79 230.089 109.479 224.877 110.721L209.451 114.395L184.697 10.458Z" fill="#F14D34"/>
<path d="M118.855 55.7583L142.737 50.0705L137.049 26.1882L113.167 31.876L118.855 55.7583Z" fill="#F9E050"/>
<path d="M117.716 156.943L141.598 151.255L135.91 127.373L112.028 133.061L117.716 156.943Z" fill="#F9B038"/>
<path d="M89.2843 37.5637L113.167 31.8759L107.517 8.15495L83.6349 13.8428L89.2843 37.5637Z" fill="#F9E050"/>
</mask>
<g mask="url(#mask0_1_212)">
<g filter="url(#filter1_d_1_212)">
<path d="M132.267 112.076L164.702 104.351L156.977 71.9162L124.543 79.6409L132.267 112.076Z" fill="#F9E050"/>
<path d="M65.4018 43.2515L97.8366 35.5268L92.1872 11.8058L59.7524 19.5305L65.4018 43.2515Z" fill="#F4F464"/>
<path d="M94.972 61.446L127.407 53.7213L119.682 21.2865L87.2473 29.0112L94.972 61.446ZM23.3411 78.5056L47.2234 72.8178L41.5356 48.9354L17.6533 54.6233L23.3411 78.5056ZM76.7698 90.9838L100.652 85.296L94.9643 61.4137L71.082 67.1015L76.7698 90.9838Z" fill="#F4F464"/>
<path d="M137.94 135.894L170.374 128.169L162.65 95.7341L130.215 103.459L137.94 135.894Z" fill="#F9B038"/>
<path d="M133.061 153.288L174.016 143.535L168.328 119.652L127.373 129.406L133.061 153.288Z" fill="#F6842D"/>
<path d="M69.9674 168.315L93.8497 162.627L88.1619 138.745L64.2796 144.433L69.9674 168.315Z" fill="#F9E050"/>
<path d="M115.204 40.4282L147.638 32.7035L139.952 0.430108L107.517 8.15479L115.204 40.4282Z" fill="#F6842D"/>
<path d="M88.1415 138.733L112.024 133.045L106.336 109.163L82.4537 114.85L88.1415 138.733Z" fill="#F4F464"/>
<path d="M144.628 58.6577L177.063 50.933L169.338 18.4982L136.903 26.2229L144.628 58.6577Z" fill="#F4AC2B"/>
<path d="M150.304 82.4909L182.739 74.7663L175.014 42.3315L142.58 50.0562L150.304 82.4909Z" fill="#F6842D"/>
<path d="M156.004 106.422L188.439 98.6974L180.714 66.2626L148.279 73.9873L156.004 106.422Z" fill="#F4AC2B"/>
<path d="M161.676 130.24L194.111 122.516L186.386 90.081L153.952 97.8057L161.676 130.24Z" fill="#F6842D"/>
<path d="M131.415 2.46355L137.065 26.1845L160.786 20.5351L183.529 116.032L159.647 121.72L165.335 145.602L229.349 130.357C238.967 128.066 247.032 124.986 253.509 121.107C259.993 117.261 264.823 112.052 268.035 105.49C271.246 98.927 272.867 90.6971 272.833 80.8151C272.806 70.9654 271.063 58.8474 267.627 44.4212C264.16 29.8659 260.331 18.296 256.129 9.74747C251.873 1.04146 246.943 -5.33848 241.343 -9.37621C235.738 -13.6095 228.928 -15.9423 221.904 -16.035C214.585 -16.338 206.044 -15.327 196.313 -13.0096L155.116 -3.19814L131.415 2.46355ZM184.697 10.458L200.14 6.78018C205.465 5.51195 210.226 5.02601 214.359 5.33774C218.64 5.51146 222.679 7.36839 225.599 10.5047C228.968 13.6243 231.984 18.4137 234.684 24.8814C237.529 31.3145 240.268 40.0921 242.919 51.2264C245.563 62.3285 247.058 71.4703 247.465 78.6205C247.987 85.607 247.469 91.3064 245.914 95.735C244.478 99.8247 241.703 103.31 238.038 105.625C234.462 107.79 230.089 109.479 224.877 110.721L209.451 114.395L184.697 10.458Z" fill="#F14D34"/>
<path d="M118.855 55.7583L142.737 50.0705L137.049 26.1882L113.167 31.876L118.855 55.7583Z" fill="#F9E050"/>
<path d="M117.716 156.943L141.598 151.255L135.91 127.373L112.028 133.061L117.716 156.943Z" fill="#F9B038"/>
<path d="M89.2843 37.5637L113.167 31.8759L107.517 8.15495L83.6349 13.8428L89.2843 37.5637Z" fill="#F9E050"/>
</g>
<rect x="12" y="30.886" width="245.381" height="147.229" transform="rotate(-13.396 12 30.886)" fill="url(#paint0_linear_1_212)"/>
</g>
</g>
<defs>
<filter id="filter0_dd_1_212" x="-5.07001" y="-26" width="307.08" height="261.17" filterUnits="userSpaceOnUse" color-interpolation-filters="sRGB">
<feFlood flood-opacity="0" result="BackgroundImageFix"/>
<feColorMatrix in="SourceAlpha" type="matrix" values="0 0 0 0 0 0 0 0 0 0 0 0 0 0 0 0 0 0 127 0" result="hardAlpha"/>
<feOffset dy="44.0975"/>
<feGaussianBlur stdDeviation="8.535"/>
<feColorMatrix type="matrix" values="0 0 0 0 0 0 0 0 0 0.0495833 0 0 0 0 0.145833 0 0 0 0.25 0"/>
<feBlend mode="normal" in2="BackgroundImageFix" result="effect1_dropShadow_1_212"/>
<feColorMatrix in="SourceAlpha" type="matrix" values="0 0 0 0 0 0 0 0 0 0 0 0 0 0 0 0 0 0 127 0" result="hardAlpha"/>
<feOffset dy="4.97875"/>
<feColorMatrix type="matrix" values="0 0 0 0 0.2375 0 0 0 0 0.136562 0 0 0 0 0.136562 0 0 0 1 0"/>
<feBlend mode="normal" in2="effect1_dropShadow_1_212" result="effect2_dropShadow_1_212"/>
<feBlend mode="normal" in="SourceGraphic" in2="effect2_dropShadow_1_212" result="shape"/>
</filter>
<filter id="filter1_d_1_212" x="0.583273" y="-16.0874" width="289.32" height="245.57" filterUnits="userSpaceOnUse" color-interpolation-filters="sRGB">
<feFlood flood-opacity="0" result="BackgroundImageFix"/>
<feColorMatrix in="SourceAlpha" type="matrix" values="0 0 0 0 0 0 0 0 0 0 0 0 0 0 0 0 0 0 127 0" result="hardAlpha"/>
<feOffset dy="44.0975"/>
<feGaussianBlur stdDeviation="8.535"/>
<feColorMatrix type="matrix" values="0 0 0 0 0 0 0 0 0 0.0495833 0 0 0 0 0.145833 0 0 0 0.25 0"/>
<feBlend mode="normal" in2="BackgroundImageFix" result="effect1_dropShadow_1_212"/>
<feBlend mode="normal" in="SourceGraphic" in2="effect1_dropShadow_1_212" result="shape"/>
</filter>
<linearGradient id="paint0_linear_1_212" x1="116.198" y1="-39.8834" x2="173.098" y2="136.862" gradientUnits="userSpaceOnUse">
<stop stop-color="white"/>
<stop offset="1" stop-color="white" stop-opacity="0"/>
</linearGradient>
</defs>
</svg>
