<svg width="467" height="213" viewBox="0 0 467 213" fill="none" xmlns="http://www.w3.org/2000/svg">
<g filter="url(#filter0_dd_1_248)">
<mask id="mask0_1_248" style="mask-type:alpha" maskUnits="userSpaceOnUse" x="11" y="18" width="481" height="348">
<path d="M226.876 259.557L287.848 245.036L273.327 184.063L212.355 198.584L226.876 259.557Z" fill="#F9E050"/>
<path d="M101.179 130.18L162.151 115.658L151.531 71.0667L90.5591 85.5879L101.179 130.18Z" fill="#F4F464"/>
<path d="M156.767 164.382L217.739 149.861L203.218 88.8889L142.246 103.41L156.767 164.382ZM22.1121 196.452L67.0072 185.76L56.315 140.865L11.4199 151.557L22.1121 196.452ZM122.55 219.909L167.445 209.217L156.752 164.322L111.857 175.014L122.55 219.909Z" fill="#F4F464"/>
<path d="M194.799 124.873L255.772 110.352L241.323 49.6829L180.351 64.2041L194.799 124.873Z" fill="#F6842D"/>
<path d="M250.113 159.142L311.085 144.621L296.564 83.6487L235.591 98.1699L250.113 159.142Z" fill="#F4AC2B"/>
<path d="M260.783 203.945L321.755 189.424L307.234 128.451L246.261 142.973L260.783 203.945Z" fill="#F6842D"/>
<path d="M271.497 248.929L332.469 234.408L317.948 173.436L256.976 187.957L271.497 248.929Z" fill="#F4AC2B"/>
<path d="M225.275 53.5064L235.895 98.0981L280.486 87.4781L323.241 266.998L278.346 277.69L289.038 322.585L409.375 293.925C427.454 289.62 442.615 283.829 454.791 276.538C466.981 269.307 476.06 259.516 482.098 247.179C488.135 234.843 491.182 219.372 491.117 200.795C491.067 182.279 487.789 159.499 481.331 132.38C474.814 105.019 467.615 83.2689 459.717 67.1991C451.716 50.8331 442.449 38.8399 431.922 31.2496C421.385 23.2917 408.582 18.9063 395.379 18.7322C381.62 18.1624 365.564 20.0629 347.273 24.4193L269.829 42.8634L225.275 53.5064ZM325.436 68.5348L354.466 61.621C364.476 59.2369 373.426 58.3235 381.195 58.9095C389.243 59.236 396.837 62.7268 402.325 68.6226C408.658 74.4869 414.328 83.4903 419.403 95.6485C424.752 107.742 429.9 124.242 434.884 145.173C439.855 166.043 442.666 183.228 443.431 196.669C444.411 209.803 443.436 220.517 440.515 228.842C437.814 236.53 432.598 243.081 425.709 247.434C418.985 251.504 410.766 254.679 400.968 257.013L371.968 263.919L325.436 68.5348Z" fill="#F14D34"/>
<path d="M201.662 153.689L246.557 142.997L235.865 98.1022L190.97 108.794L201.662 153.689Z" fill="#F9E050"/>
<path d="M146.075 119.489L190.97 108.796L180.35 64.2048L135.455 74.897L146.075 119.489Z" fill="#F9E050"/>
</mask>
<g mask="url(#mask0_1_248)">
<g filter="url(#filter1_d_1_248)">
<path d="M226.876 259.557L287.848 245.036L273.327 184.063L212.355 198.584L226.876 259.557Z" fill="#F9E050"/>
<path d="M101.179 130.18L162.151 115.658L151.531 71.0667L90.5591 85.5879L101.179 130.18Z" fill="#F4F464"/>
<path d="M156.767 164.382L217.739 149.861L203.218 88.8889L142.246 103.41L156.767 164.382ZM22.1121 196.452L67.0072 185.76L56.315 140.865L11.4199 151.557L22.1121 196.452ZM122.55 219.909L167.445 209.217L156.752 164.322L111.857 175.014L122.55 219.909Z" fill="#F4F464"/>
<path d="M194.799 124.873L255.772 110.352L241.323 49.6829L180.351 64.2041L194.799 124.873Z" fill="#F6842D"/>
<path d="M250.113 159.142L311.085 144.621L296.564 83.6487L235.591 98.1699L250.113 159.142Z" fill="#F4AC2B"/>
<path d="M260.783 203.945L321.755 189.424L307.234 128.451L246.261 142.973L260.783 203.945Z" fill="#F6842D"/>
<path d="M271.497 248.929L332.469 234.408L317.948 173.436L256.976 187.957L271.497 248.929Z" fill="#F4AC2B"/>
<path d="M225.275 53.5064L235.895 98.0981L280.486 87.4781L323.241 266.998L278.346 277.69L289.038 322.585L409.375 293.925C427.454 289.62 442.615 283.829 454.791 276.538C466.981 269.307 476.06 259.516 482.098 247.179C488.135 234.843 491.182 219.372 491.117 200.795C491.067 182.279 487.789 159.499 481.331 132.38C474.814 105.019 467.615 83.2689 459.717 67.1991C451.716 50.8331 442.449 38.8399 431.922 31.2496C421.385 23.2917 408.582 18.9063 395.379 18.7322C381.62 18.1624 365.564 20.0629 347.273 24.4193L269.829 42.8634L225.275 53.5064ZM325.436 68.5348L354.466 61.621C364.476 59.2369 373.426 58.3235 381.195 58.9095C389.243 59.236 396.837 62.7268 402.325 68.6226C408.658 74.4869 414.328 83.4903 419.403 95.6485C424.752 107.742 429.9 124.242 434.884 145.173C439.855 166.043 442.666 183.228 443.431 196.669C444.411 209.803 443.436 220.517 440.515 228.842C437.814 236.53 432.598 243.081 425.709 247.434C418.985 251.504 410.766 254.679 400.968 257.013L371.968 263.919L325.436 68.5348Z" fill="#F14D34"/>
<path d="M201.662 153.689L246.557 142.997L235.865 98.1022L190.97 108.794L201.662 153.689Z" fill="#F9E050"/>
<path d="M146.075 119.489L190.97 108.796L180.35 64.2048L135.455 74.897L146.075 119.489Z" fill="#F9E050"/>
</g>
<rect x="0.792603" y="106.936" width="129.24" height="77.5442" transform="rotate(-13.396 0.792603 106.936)" fill="url(#paint0_linear_1_248)"/>
</g>
</g>
<defs>
<filter id="filter0_dd_1_248" x="-8.19803" y="-0.000488281" width="531.066" height="408.19" filterUnits="userSpaceOnUse" color-interpolation-filters="sRGB">
<feFlood flood-opacity="0" result="BackgroundImageFix"/>
<feColorMatrix in="SourceAlpha" type="matrix" values="0 0 0 0 0 0 0 0 0 0 0 0 0 0 0 0 0 0 127 0" result="hardAlpha"/>
<feOffset dy="23.2258"/>
<feGaussianBlur stdDeviation="4.49532"/>
<feColorMatrix type="matrix" values="0 0 0 0 0 0 0 0 0 0.0495833 0 0 0 0 0.145833 0 0 0 0.25 0"/>
<feBlend mode="normal" in2="BackgroundImageFix" result="effect1_dropShadow_1_248"/>
<feColorMatrix in="SourceAlpha" type="matrix" values="0 0 0 0 0 0 0 0 0 0 0 0 0 0 0 0 0 0 127 0" result="hardAlpha"/>
<feOffset dy="2.62227"/>
<feColorMatrix type="matrix" values="0 0 0 0 0.2375 0 0 0 0 0.136562 0 0 0 0 0.136562 0 0 0 1 0"/>
<feBlend mode="normal" in2="effect1_dropShadow_1_248" result="effect2_dropShadow_1_248"/>
<feBlend mode="normal" in="SourceGraphic" in2="effect2_dropShadow_1_248" result="shape"/>
</filter>
<filter id="filter1_d_1_248" x="2.42932" y="18.6338" width="497.68" height="378.862" filterUnits="userSpaceOnUse" color-interpolation-filters="sRGB">
<feFlood flood-opacity="0" result="BackgroundImageFix"/>
<feColorMatrix in="SourceAlpha" type="matrix" values="0 0 0 0 0 0 0 0 0 0 0 0 0 0 0 0 0 0 127 0" result="hardAlpha"/>
<feOffset dy="23.2258"/>
<feGaussianBlur stdDeviation="4.49532"/>
<feColorMatrix type="matrix" values="0 0 0 0 0 0 0 0 0 0.0495833 0 0 0 0 0.145833 0 0 0 0.25 0"/>
<feBlend mode="normal" in2="BackgroundImageFix" result="effect1_dropShadow_1_248"/>
<feBlend mode="normal" in="SourceGraphic" in2="effect1_dropShadow_1_248" result="shape"/>
</filter>
<linearGradient id="paint0_linear_1_248" x1="55.673" y1="69.6624" x2="85.6417" y2="162.753" gradientUnits="userSpaceOnUse">
<stop stop-color="white"/>
<stop offset="1" stop-color="white" stop-opacity="0"/>
</linearGradient>
</defs>
</svg>
