<svg width="1015.538208" height="1124.208862" viewBox="0 0 1015.54 1124.21" fill="none" xmlns="http://www.w3.org/2000/svg" xmlns:xlink="http://www.w3.org/1999/xlink">
	<desc>
			Created with Pixso.
	</desc>
	<defs>
		<linearGradient x1="2133.028320" y1="-1159.955078" x2="540.875488" y2="1273.860107" id="paint_linear_94_789_0" gradientUnits="userSpaceOnUse">
			<stop stop-color="#000000"/>
			<stop offset="1.000000" stop-color="#FFFFFF" stop-opacity="0.000000"/>
		</linearGradient>
	</defs>
	<path d="M642.663 136.397C576.418 115.261 518.8 114.95 455.773 93.0001C416.539 78.8223 356.409 36.676 305.736 0C317.043 76.3453 301.853 112.283 281.452 140.387C237.633 197.681 205.967 219.291 165.002 257.237C130.184 287.829 -54.5364 472.284 15.8591 750.545C86.2546 1028.81 372.615 1174.39 633.052 1108.5C893.49 1042.61 1071.65 796.727 999.334 510.894C927.023 225.061 682.79 149.511 642.663 136.397ZM271.311 864.826C251.196 780.719 310.117 682.032 409.242 655.473C482.819 636.182 554.118 663.552 613.369 686.297C655.706 702.548 691.891 716.439 718.359 709.259C772.101 694.503 849.149 562.551 899.95 549.7C953.967 536.034 983.269 588.299 991.728 621.734C1000.19 655.169 1004.66 718.291 988.594 762.506C972.527 806.721 959.21 825.042 928.736 830.432C889.019 837.064 780.654 735.97 730.394 746.365C702.369 752.432 666.747 788.295 626.498 828.816C575.477 880.183 517.019 939.036 457.17 954.177C392.348 970.576 370.459 965.737 345.252 957.227C307.11 942.773 282.232 912.332 271.265 864.644L271.311 864.826ZM724.36 828.193C741.641 823.824 760.281 820.277 775.322 825.677C790.38 831.083 802.991 848.516 810.028 858.207C811.573 859.894 812.727 861.899 813.409 864.081C814.092 866.262 814.286 868.568 813.979 870.833C813.672 873.099 812.87 875.271 811.63 877.194C810.39 879.118 808.743 880.747 806.804 881.966C800.388 888.15 798.748 886.339 787.645 874.074L787.534 873.951C776.331 861.576 766.419 849.454 728.607 859.02C690.795 868.586 682.178 884.557 667.603 904.292L667.398 904.569C652.98 924.092 647.857 931.029 639.289 924.344C630.68 917.629 630.491 908.203 639.902 894.35C649.314 880.498 664.186 858.368 680.601 846.159C695.106 835.371 704.639 833.037 718.598 829.62C720.417 829.175 722.31 828.711 724.299 828.208L724.36 828.193ZM707.126 996.7C637.935 1014.2 601.969 1008.35 575.995 996.555L576.146 996.388C572.393 995.081 573.486 994.805 566.991 996.448C560.961 998.439 555.87 1002.57 552.686 1008.06C551.498 1009.9 550.703 1011.97 550.348 1014.13C549.994 1016.3 550.088 1018.51 550.625 1020.63C551.163 1022.76 552.132 1024.75 553.472 1026.48C554.812 1028.21 556.495 1029.65 558.417 1030.71C616.866 1061.88 694.941 1038.64 751.964 1018.48C791.902 1003.24 827.089 977.703 853.94 944.478C855.879 941.625 856.896 938.247 856.856 934.801C856.815 931.355 855.718 928.005 853.713 925.201C851.517 921.117 845.522 915.802 837.712 925.769C820.014 947.454 776.317 979.196 707.126 996.7Z" clip-rule="evenodd" fill="url(#paint_linear_94_789_0)" fill-opacity="0.548000" fill-rule="evenodd"/>
</svg>
