<svg width="28.000000" height="24.000000" viewBox="0 0 28 24" fill="none" xmlns="http://www.w3.org/2000/svg" xmlns:xlink="http://www.w3.org/1999/xlink">
	<desc>
			Created with Pixso.
	</desc>
	<defs/>
	<path d="M3.5 3L24.5 3C24.8 3 25.1 3.1 25.32 3.29C25.54 3.48 25.66 3.73 25.66 4L25.66 20C25.66 20.26 25.54 20.51 25.32 20.7C25.1 20.89 24.8 21 24.5 21L3.5 21C3.19 21 2.89 20.89 2.67 20.7C2.45 20.51 2.33 20.26 2.33 20L2.33 4C2.33 3.73 2.45 3.48 2.67 3.29C2.89 3.1 3.19 3 3.5 3ZM23.33 7.23L14.08 14.33L4.66 7.21L4.66 19L23.33 19L23.33 7.23ZM5.26 5L14.07 11.66L22.75 5L5.26 5Z" fill="#FFFFFF" fill-opacity="1.000000" fill-rule="nonzero"/>
</svg>
