<svg width="18.000000" height="18.000000" viewBox="0 0 18 18" fill="none" xmlns="http://www.w3.org/2000/svg" xmlns:xlink="http://www.w3.org/1999/xlink">
	<desc>
			Created with Pixso.
	</desc>
	<defs/>
	<path id="Vector" d="M6.36 7.68C7.3 9.33 8.66 10.69 10.31 11.63L11.2 10.39C11.34 10.19 11.55 10.05 11.79 10C12.03 9.94 12.28 9.98 12.49 10.09C13.91 10.87 15.47 11.33 17.07 11.46C17.32 11.48 17.56 11.59 17.73 11.78C17.9 11.96 18 12.2 18 12.46L18 16.92C18 17.17 17.9 17.4 17.74 17.59C17.57 17.77 17.34 17.89 17.1 17.91C16.57 17.97 16.03 18 15.5 18C6.93 18 0 11.05 0 2.5C0 1.96 0.02 1.42 0.08 0.89C0.1 0.65 0.22 0.42 0.4 0.25C0.59 0.09 0.82 0 1.07 0L5.53 0C5.79 0 6.03 0.09 6.21 0.26C6.4 0.43 6.51 0.66 6.53 0.92C6.66 2.52 7.12 4.08 7.9 5.5C8.01 5.71 8.05 5.96 7.99 6.2C7.94 6.44 7.8 6.65 7.6 6.79L6.36 7.68ZM3.84 7.02L5.74 5.66C5.2 4.5 4.83 3.26 4.64 2L2.01 2C2 2.16 2 2.33 2 2.5C2 9.95 8.04 16 15.5 16C15.66 16 15.83 15.99 16 15.99L16 13.35C14.73 13.16 13.49 12.79 12.33 12.25L10.97 14.15C10.42 13.94 9.89 13.69 9.38 13.4L9.32 13.37C7.36 12.25 5.74 10.63 4.62 8.67L4.59 8.61C4.3 8.1 4.05 7.57 3.84 7.02Z" fill="#FFFFFF" fill-opacity="1.000000" fill-rule="nonzero"/>
</svg>
