<svg width="114.000000" height="71.000000" viewBox="0 0 114 71" fill="none" xmlns="http://www.w3.org/2000/svg" xmlns:xlink="http://www.w3.org/1999/xlink">
	<desc>
			Created with Pixso.
	</desc>
	<defs/>
	<g opacity="0.070000">
		<path id="Vector" d="M61.06 11.77L68.31 11.77L61.06 11.77L61.06 11.77ZM56.91 70.99L56.91 71L87.46 71C92.05 71 96.03 70.45 99.37 69.35C102.71 68.27 105.45 66.37 107.61 63.65C109.77 60.92 111.38 57.24 112.43 52.6C113.48 47.97 114 42.09 114 34.93C114 27.71 113.51 21.85 112.53 17.37C111.55 12.8 110.01 9.26 107.91 6.74C105.83 4.12 103.01 2.26 99.85 1.44C96.57 0.48 92.61 0 87.96 0L57 0L22.78 0L22.78 11.77L34.18 11.77L34.18 23.6L22.78 23.6L22.78 35.45L34.18 35.45L34.18 23.62L49.66 23.62L49.66 23.62L56.91 23.62L56.91 35.47L45.58 35.47L45.58 59.15L34.18 59.15L34.18 70.99L56.91 70.99ZM80.19 9.71L87.56 9.71C90.1 9.71 92.31 10.02 94.14 10.63C96.06 11.19 97.68 12.51 98.66 14.31C99.85 16.15 100.69 18.74 101.22 22.07C101.81 25.41 102.1 29.84 102.1 35.36C102.1 40.87 101.8 45.33 101.21 48.73C100.69 52.07 99.85 54.69 98.67 56.59C97.58 58.35 95.95 59.68 94.05 60.36C92.2 60.97 90.04 61.28 87.56 61.28L80.19 61.28L80.19 9.71ZM0 23.62L11.39 23.62L11.39 11.77L0 11.77L0 23.62ZM22.78 59.14L34.18 59.14L34.18 47.29L22.78 47.29L22.78 59.14ZM11.39 70.99L22.79 70.99L22.79 59.15L11.39 59.15L11.39 70.99Z" fill="#F6842D" fill-opacity="1.000000" fill-rule="evenodd"/>
	</g>
</svg>
